# xmcd CD database file
#
# Track frame offsets:
#	150
#	30182
#	46050
#	63130
#	80457
#	106002
#	137540
#	159860
#	177830
#	194690
#	210660
#	233930
#
# Disc length: 3289 seconds
#
# Revision: 0
# Processed by: cddbd v1.5.2PL0 Copyright (c) Steve Scherf et al.
# Submitted via: CDex 1.82
#
DISCID=8b0cd70c
DTITLE=Various Artist - Virgin merry
DYEAR=2000
DGENRE=Compilations
TTITLE0=Phil Collins - Both Sides Of The Story
TTITLE1=Lenny Kravitz - Are You Gonna Go My Way
TTITLE2=Soul II Soul - Back To Life
TTITLE3=Nenah Cherry - Buffalo Stance
TTITLE4=UB40 - Bring Me Your Cup
TTITLE5=Janet Jackson - This Time
TTITLE6=Belinda Carlisle - Where Love Hides
TTITLE7=Culture Club - Karma Chameleon
TTITLE8=Mike Oldfield - Family Man
TTITLE9=Mel and Kim - Rockin Around The Christmas Tree
TTITLE10=Meat Loaf - Rock And Roll Dreams Come True
TTITLE11=Roy Orbison - Its Over
EXTD=YEAR: 2000
EXTT0=
EXTT1=
EXTT2=
EXTT3=
EXTT4=
EXTT5=
EXTT6=
EXTT7=
EXTT8=
EXTT9=
EXTT10=
EXTT11=
PLAYORDER=
